<?xml version="1.0" encoding="UTF-8" standalone="no"?>
<!DOCTYPE svg PUBLIC "-//W3C//DTD SVG 1.1//EN"
 "http://www.w3.org/Graphics/SVG/1.1/DTD/svg11.dtd">
<!-- Generated by graphviz version 2.36.0 (20140111.2315)
 -->
<!-- Title: controllers_diagram Pages: 1 -->
<svg width="760pt" height="699pt"
 viewBox="0.00 0.00 760.00 699.00" xmlns="http://www.w3.org/2000/svg" xmlns:xlink="http://www.w3.org/1999/xlink">
<g id="graph0" class="graph" transform="scale(1 1) rotate(0) translate(4 695)">
<title>controllers_diagram</title>
<polygon fill="white" stroke="none" points="-4,4 -4,-695 756,-695 756,4 -4,4"/>
<!-- _diagram_info -->
<g id="node1" class="node"><title>_diagram_info</title>
<text text-anchor="start" x="386" y="-99.6" font-family="Times,serif" font-size="13.00">Controllers diagram</text>
<text text-anchor="start" x="386" y="-85.6" font-family="Times,serif" font-size="13.00">Date: Dec 05 2014 &#45; 14:50</text>
<text text-anchor="start" x="386" y="-71.6" font-family="Times,serif" font-size="13.00">Migration version: 20141204201823</text>
<text text-anchor="start" x="386" y="-57.6" font-family="Times,serif" font-size="13.00">Generated by RailRoady 1.2.0</text>
<text text-anchor="start" x="386" y="-43.6" font-family="Times,serif" font-size="13.00">http://railroady.prestonlee.com</text>
</g>
<!-- AuthorizationController -->
<g id="node2" class="node"><title>AuthorizationController</title>
<path fill="none" stroke="black" d="M192,-126.5C192,-126.5 326,-126.5 326,-126.5 332,-126.5 338,-132.5 338,-138.5 338,-138.5 338,-342.5 338,-342.5 338,-348.5 332,-354.5 326,-354.5 326,-354.5 192,-354.5 192,-354.5 186,-354.5 180,-348.5 180,-342.5 180,-342.5 180,-138.5 180,-138.5 180,-132.5 186,-126.5 192,-126.5"/>
<text text-anchor="middle" x="259" y="-339.3" font-family="Times,serif" font-size="14.00">AuthorizationController</text>
<polyline fill="none" stroke="black" points="180,-331.5 338,-331.5 "/>
<text text-anchor="start" x="188" y="-316.3" font-family="Times,serif" font-size="14.00">admin_params</text>
<text text-anchor="start" x="188" y="-301.3" font-family="Times,serif" font-size="14.00">client_params</text>
<text text-anchor="start" x="188" y="-286.3" font-family="Times,serif" font-size="14.00">company_user_params</text>
<text text-anchor="start" x="188" y="-271.3" font-family="Times,serif" font-size="14.00">login</text>
<text text-anchor="start" x="188" y="-256.3" font-family="Times,serif" font-size="14.00">logout</text>
<text text-anchor="start" x="188" y="-241.3" font-family="Times,serif" font-size="14.00">password_reset</text>
<text text-anchor="start" x="188" y="-226.3" font-family="Times,serif" font-size="14.00">recover</text>
<text text-anchor="start" x="188" y="-211.3" font-family="Times,serif" font-size="14.00">set_reset_password_token</text>
<text text-anchor="start" x="188" y="-196.3" font-family="Times,serif" font-size="14.00">sign_up</text>
<text text-anchor="start" x="188" y="-181.3" font-family="Times,serif" font-size="14.00">validate_password_reset</text>
<polyline fill="none" stroke="black" points="180,-173.5 338,-173.5 "/>
<polyline fill="none" stroke="black" points="180,-149.5 338,-149.5 "/>
<text text-anchor="start" x="188" y="-134.3" font-family="Times,serif" font-size="14.00">_layout</text>
</g>
<!-- API::PagoController -->
<g id="node3" class="node"><title>API::PagoController</title>
<path fill="none" stroke="black" d="M12,-522.5C12,-522.5 116,-522.5 116,-522.5 122,-522.5 128,-528.5 128,-534.5 128,-534.5 128,-678.5 128,-678.5 128,-684.5 122,-690.5 116,-690.5 116,-690.5 12,-690.5 12,-690.5 6,-690.5 0,-684.5 0,-678.5 0,-678.5 0,-534.5 0,-534.5 0,-528.5 6,-522.5 12,-522.5"/>
<text text-anchor="middle" x="64" y="-675.3" font-family="Times,serif" font-size="14.00">API::PagoController</text>
<polyline fill="none" stroke="black" points="0,-667.5 128,-667.5 "/>
<text text-anchor="start" x="8" y="-652.3" font-family="Times,serif" font-size="14.00">create</text>
<text text-anchor="start" x="8" y="-637.3" font-family="Times,serif" font-size="14.00">destroy</text>
<text text-anchor="start" x="8" y="-622.3" font-family="Times,serif" font-size="14.00">index</text>
<text text-anchor="start" x="8" y="-607.3" font-family="Times,serif" font-size="14.00">pago_params</text>
<text text-anchor="start" x="8" y="-592.3" font-family="Times,serif" font-size="14.00">show</text>
<text text-anchor="start" x="8" y="-577.3" font-family="Times,serif" font-size="14.00">update</text>
<polyline fill="none" stroke="black" points="0,-569.5 128,-569.5 "/>
<polyline fill="none" stroke="black" points="0,-545.5 128,-545.5 "/>
<text text-anchor="start" x="8" y="-530.3" font-family="Times,serif" font-size="14.00">_layout</text>
</g>
<!-- API::EmpresaController -->
<g id="node4" class="node"><title>API::EmpresaController</title>
<path fill="none" stroke="black" d="M390,-144.5C390,-144.5 515,-144.5 515,-144.5 521,-144.5 527,-150.5 527,-156.5 527,-156.5 527,-300.5 527,-300.5 527,-306.5 521,-312.5 515,-312.5 515,-312.5 390,-312.5 390,-312.5 384,-312.5 378,-306.5 378,-300.5 378,-300.5 378,-156.5 378,-156.5 378,-150.5 384,-144.5 390,-144.5"/>
<text text-anchor="middle" x="452.5" y="-297.3" font-family="Times,serif" font-size="14.00">API::EmpresaController</text>
<polyline fill="none" stroke="black" points="378,-289.5 527,-289.5 "/>
<text text-anchor="start" x="386" y="-274.3" font-family="Times,serif" font-size="14.00">create</text>
<text text-anchor="start" x="386" y="-259.3" font-family="Times,serif" font-size="14.00">destroy</text>
<text text-anchor="start" x="386" y="-244.3" font-family="Times,serif" font-size="14.00">empresa_params</text>
<text text-anchor="start" x="386" y="-229.3" font-family="Times,serif" font-size="14.00">index</text>
<text text-anchor="start" x="386" y="-214.3" font-family="Times,serif" font-size="14.00">show</text>
<text text-anchor="start" x="386" y="-199.3" font-family="Times,serif" font-size="14.00">update</text>
<polyline fill="none" stroke="black" points="378,-191.5 527,-191.5 "/>
<polyline fill="none" stroke="black" points="378,-167.5 527,-167.5 "/>
<text text-anchor="start" x="386" y="-152.3" font-family="Times,serif" font-size="14.00">_layout</text>
</g>
<!-- API::CuentaController -->
<g id="node5" class="node"><title>API::CuentaController</title>
<path fill="none" stroke="black" d="M12,-198.5C12,-198.5 128,-198.5 128,-198.5 134,-198.5 140,-204.5 140,-210.5 140,-210.5 140,-354.5 140,-354.5 140,-360.5 134,-366.5 128,-366.5 128,-366.5 12,-366.5 12,-366.5 6,-366.5 0,-360.5 0,-354.5 0,-354.5 0,-210.5 0,-210.5 0,-204.5 6,-198.5 12,-198.5"/>
<text text-anchor="middle" x="70" y="-351.3" font-family="Times,serif" font-size="14.00">API::CuentaController</text>
<polyline fill="none" stroke="black" points="0,-343.5 140,-343.5 "/>
<text text-anchor="start" x="8" y="-328.3" font-family="Times,serif" font-size="14.00">create</text>
<text text-anchor="start" x="8" y="-313.3" font-family="Times,serif" font-size="14.00">cuenta_params</text>
<text text-anchor="start" x="8" y="-298.3" font-family="Times,serif" font-size="14.00">destroy</text>
<text text-anchor="start" x="8" y="-283.3" font-family="Times,serif" font-size="14.00">index</text>
<text text-anchor="start" x="8" y="-268.3" font-family="Times,serif" font-size="14.00">show</text>
<text text-anchor="start" x="8" y="-253.3" font-family="Times,serif" font-size="14.00">update</text>
<polyline fill="none" stroke="black" points="0,-245.5 140,-245.5 "/>
<polyline fill="none" stroke="black" points="0,-221.5 140,-221.5 "/>
<text text-anchor="start" x="8" y="-206.3" font-family="Times,serif" font-size="14.00">_layout</text>
</g>
<!-- API::AccountController -->
<g id="node6" class="node"><title>API::AccountController</title>
<path fill="none" stroke="black" d="M390,-342.5C390,-342.5 513,-342.5 513,-342.5 519,-342.5 525,-348.5 525,-354.5 525,-354.5 525,-498.5 525,-498.5 525,-504.5 519,-510.5 513,-510.5 513,-510.5 390,-510.5 390,-510.5 384,-510.5 378,-504.5 378,-498.5 378,-498.5 378,-354.5 378,-354.5 378,-348.5 384,-342.5 390,-342.5"/>
<text text-anchor="middle" x="451.5" y="-495.3" font-family="Times,serif" font-size="14.00">API::AccountController</text>
<polyline fill="none" stroke="black" points="378,-487.5 525,-487.5 "/>
<text text-anchor="start" x="386" y="-472.3" font-family="Times,serif" font-size="14.00">account_params</text>
<text text-anchor="start" x="386" y="-457.3" font-family="Times,serif" font-size="14.00">create</text>
<text text-anchor="start" x="386" y="-442.3" font-family="Times,serif" font-size="14.00">destroy</text>
<text text-anchor="start" x="386" y="-427.3" font-family="Times,serif" font-size="14.00">index</text>
<text text-anchor="start" x="386" y="-412.3" font-family="Times,serif" font-size="14.00">show</text>
<text text-anchor="start" x="386" y="-397.3" font-family="Times,serif" font-size="14.00">update</text>
<polyline fill="none" stroke="black" points="378,-389.5 525,-389.5 "/>
<polyline fill="none" stroke="black" points="378,-365.5 525,-365.5 "/>
<text text-anchor="start" x="386" y="-350.3" font-family="Times,serif" font-size="14.00">_layout</text>
</g>
<!-- API::RubroController -->
<g id="node7" class="node"><title>API::RubroController</title>
<path fill="none" stroke="black" d="M30,-0.5C30,-0.5 141,-0.5 141,-0.5 147,-0.5 153,-6.5 153,-12.5 153,-12.5 153,-156.5 153,-156.5 153,-162.5 147,-168.5 141,-168.5 141,-168.5 30,-168.5 30,-168.5 24,-168.5 18,-162.5 18,-156.5 18,-156.5 18,-12.5 18,-12.5 18,-6.5 24,-0.5 30,-0.5"/>
<text text-anchor="middle" x="85.5" y="-153.3" font-family="Times,serif" font-size="14.00">API::RubroController</text>
<polyline fill="none" stroke="black" points="18,-145.5 153,-145.5 "/>
<text text-anchor="start" x="26" y="-130.3" font-family="Times,serif" font-size="14.00">create</text>
<text text-anchor="start" x="26" y="-115.3" font-family="Times,serif" font-size="14.00">destroy</text>
<text text-anchor="start" x="26" y="-100.3" font-family="Times,serif" font-size="14.00">index</text>
<text text-anchor="start" x="26" y="-85.3" font-family="Times,serif" font-size="14.00">rubro_params</text>
<text text-anchor="start" x="26" y="-70.3" font-family="Times,serif" font-size="14.00">show</text>
<text text-anchor="start" x="26" y="-55.3" font-family="Times,serif" font-size="14.00">update</text>
<polyline fill="none" stroke="black" points="18,-47.5 153,-47.5 "/>
<polyline fill="none" stroke="black" points="18,-23.5 153,-23.5 "/>
<text text-anchor="start" x="26" y="-8.3" font-family="Times,serif" font-size="14.00">_layout</text>
</g>
<!-- API::BankAccountController -->
<g id="node8" class="node"><title>API::BankAccountController</title>
<path fill="none" stroke="black" d="M174,-396.5C174,-396.5 326,-396.5 326,-396.5 332,-396.5 338,-402.5 338,-408.5 338,-408.5 338,-537.5 338,-537.5 338,-543.5 332,-549.5 326,-549.5 326,-549.5 174,-549.5 174,-549.5 168,-549.5 162,-543.5 162,-537.5 162,-537.5 162,-408.5 162,-408.5 162,-402.5 168,-396.5 174,-396.5"/>
<text text-anchor="middle" x="250" y="-534.3" font-family="Times,serif" font-size="14.00">API::BankAccountController</text>
<polyline fill="none" stroke="black" points="162,-526.5 338,-526.5 "/>
<text text-anchor="start" x="170" y="-511.3" font-family="Times,serif" font-size="14.00">multi_transfer</text>
<text text-anchor="start" x="170" y="-496.3" font-family="Times,serif" font-size="14.00">pago_params</text>
<text text-anchor="start" x="170" y="-481.3" font-family="Times,serif" font-size="14.00">rollback_transfer</text>
<text text-anchor="start" x="170" y="-466.3" font-family="Times,serif" font-size="14.00">show</text>
<text text-anchor="start" x="170" y="-451.3" font-family="Times,serif" font-size="14.00">transfer</text>
<polyline fill="none" stroke="black" points="162,-443.5 338,-443.5 "/>
<polyline fill="none" stroke="black" points="162,-419.5 338,-419.5 "/>
<text text-anchor="start" x="170" y="-404.3" font-family="Times,serif" font-size="14.00">_layout</text>
</g>
<!-- ApplicationController -->
<g id="node9" class="node"><title>ApplicationController</title>
<path fill="none" stroke="black" d="M570,-144.5C570,-144.5 740,-144.5 740,-144.5 746,-144.5 752,-150.5 752,-156.5 752,-156.5 752,-224.5 752,-224.5 752,-230.5 746,-236.5 740,-236.5 740,-236.5 570,-236.5 570,-236.5 564,-236.5 558,-230.5 558,-224.5 558,-224.5 558,-156.5 558,-156.5 558,-150.5 564,-144.5 570,-144.5"/>
<text text-anchor="middle" x="655" y="-221.3" font-family="Times,serif" font-size="14.00">ApplicationController</text>
<polyline fill="none" stroke="black" points="558,-213.5 752,-213.5 "/>
<text text-anchor="start" x="566" y="-198.3" font-family="Times,serif" font-size="14.00">index</text>
<polyline fill="none" stroke="black" points="558,-190.5 752,-190.5 "/>
<text text-anchor="start" x="566" y="-175.3" font-family="Times,serif" font-size="14.00">configure_permitted_parameters</text>
<polyline fill="none" stroke="black" points="558,-167.5 752,-167.5 "/>
<text text-anchor="start" x="566" y="-152.3" font-family="Times,serif" font-size="14.00">_layout</text>
</g>
</g>
</svg>
