<?xml version="1.0" encoding="UTF-8" standalone="no"?>
<!DOCTYPE svg PUBLIC "-//W3C//DTD SVG 1.1//EN"
 "http://www.w3.org/Graphics/SVG/1.1/DTD/svg11.dtd">
<!-- Generated by graphviz version 2.36.0 (20140111.2315)
 -->
<!-- Title: models_diagram Pages: 1 -->
<svg width="1116pt" height="1486pt"
 viewBox="0.00 0.00 1116.00 1486.00" xmlns="http://www.w3.org/2000/svg" xmlns:xlink="http://www.w3.org/1999/xlink">
<g id="graph0" class="graph" transform="scale(1 1) rotate(0) translate(4 1482)">
<title>models_diagram</title>
<polygon fill="white" stroke="none" points="-4,4 -4,-1482 1112,-1482 1112,4 -4,4"/>
<!-- _diagram_info -->
<g id="node1" class="node"><title>_diagram_info</title>
<text text-anchor="start" x="210" y="-1313.6" font-family="Times,serif" font-size="13.00">Models diagram</text>
<text text-anchor="start" x="210" y="-1299.6" font-family="Times,serif" font-size="13.00">Date: Dec 05 2014 &#45; 14:50</text>
<text text-anchor="start" x="210" y="-1285.6" font-family="Times,serif" font-size="13.00">Migration version: 20141204201823</text>
<text text-anchor="start" x="210" y="-1271.6" font-family="Times,serif" font-size="13.00">Generated by RailRoady 1.2.0</text>
<text text-anchor="start" x="210" y="-1257.6" font-family="Times,serif" font-size="13.00">http://railroady.prestonlee.com</text>
</g>
<!-- Detalle -->
<g id="node2" class="node"><title>Detalle</title>
<path fill="none" stroke="black" d="M169,-0.5C169,-0.5 259,-0.5 259,-0.5 265,-0.5 271,-6.5 271,-12.5 271,-12.5 271,-49.5 271,-49.5 271,-55.5 265,-61.5 259,-61.5 259,-61.5 169,-61.5 169,-61.5 163,-61.5 157,-55.5 157,-49.5 157,-49.5 157,-12.5 157,-12.5 157,-6.5 163,-0.5 169,-0.5"/>
<text text-anchor="middle" x="214" y="-46.3" font-family="Times,serif" font-size="14.00">Detalle</text>
<polyline fill="none" stroke="black" points="157,-38.5 271,-38.5 "/>
<text text-anchor="start" x="165" y="-23.3" font-family="Times,serif" font-size="14.00">id_pago :integer</text>
<text text-anchor="start" x="165" y="-8.3" font-family="Times,serif" font-size="14.00">id_cuenta :integer</text>
</g>
<!-- Pago -->
<g id="node3" class="node"><title>Pago</title>
<path fill="none" stroke="black" d="M11.5,-400.5C11.5,-400.5 140.5,-400.5 140.5,-400.5 146.5,-400.5 152.5,-406.5 152.5,-412.5 152.5,-412.5 152.5,-509.5 152.5,-509.5 152.5,-515.5 146.5,-521.5 140.5,-521.5 140.5,-521.5 11.5,-521.5 11.5,-521.5 5.5,-521.5 -0.5,-515.5 -0.5,-509.5 -0.5,-509.5 -0.5,-412.5 -0.5,-412.5 -0.5,-406.5 5.5,-400.5 11.5,-400.5"/>
<text text-anchor="middle" x="76" y="-506.3" font-family="Times,serif" font-size="14.00">Pago</text>
<polyline fill="none" stroke="black" points="-0.5,-498.5 152.5,-498.5 "/>
<text text-anchor="start" x="7.5" y="-483.3" font-family="Times,serif" font-size="14.00">id_pago :integer</text>
<text text-anchor="start" x="7.5" y="-468.3" font-family="Times,serif" font-size="14.00">id_cuenta_banco :integer</text>
<text text-anchor="start" x="7.5" y="-453.3" font-family="Times,serif" font-size="14.00">detalle :text</text>
<text text-anchor="start" x="7.5" y="-438.3" font-family="Times,serif" font-size="14.00">fecha_pago :timestamp</text>
<text text-anchor="start" x="7.5" y="-423.3" font-family="Times,serif" font-size="14.00">rut_cliente :string</text>
<text text-anchor="start" x="7.5" y="-408.3" font-family="Times,serif" font-size="14.00">email :string</text>
</g>
<!-- Pago&#45;&gt;Detalle -->
<g id="edge1" class="edge"><title>Pago&#45;&gt;Detalle</title>
<path fill="none" stroke="#b296e5" d="M97.7047,-392.684C126.854,-302.279 177.71,-144.553 201.305,-71.3731"/>
<ellipse fill="none" stroke="#b296e5" cx="96.4158" cy="-396.681" rx="4.00001" ry="4.00001"/>
<polygon fill="#b296e5" stroke="#b296e5" points="201.38,-71.1415 208.731,-63.005 202.914,-66.3828 204.448,-61.624 204.448,-61.624 204.448,-61.624 202.914,-66.3828 200.165,-60.2431 201.38,-71.1415 201.38,-71.1415"/>
</g>
<!-- Cuenta -->
<g id="node10" class="node"><title>Cuenta</title>
<path fill="none" stroke="black" d="M242,-99C242,-99 378,-99 378,-99 384,-99 390,-105 390,-111 390,-111 390,-223 390,-223 390,-229 384,-235 378,-235 378,-235 242,-235 242,-235 236,-235 230,-229 230,-223 230,-223 230,-111 230,-111 230,-105 236,-99 242,-99"/>
<text text-anchor="middle" x="310" y="-219.8" font-family="Times,serif" font-size="14.00">Cuenta</text>
<polyline fill="none" stroke="black" points="230,-212 390,-212 "/>
<text text-anchor="start" x="238" y="-196.8" font-family="Times,serif" font-size="14.00">id_cuenta :integer</text>
<text text-anchor="start" x="238" y="-181.8" font-family="Times,serif" font-size="14.00">id_empresa :integer</text>
<text text-anchor="start" x="238" y="-166.8" font-family="Times,serif" font-size="14.00">id_propio_empresa :string</text>
<text text-anchor="start" x="238" y="-151.8" font-family="Times,serif" font-size="14.00">monto :integer</text>
<text text-anchor="start" x="238" y="-136.8" font-family="Times,serif" font-size="14.00">fecha_registro :timestamp</text>
<text text-anchor="start" x="238" y="-121.8" font-family="Times,serif" font-size="14.00">fecha_limite :datetime</text>
<text text-anchor="start" x="238" y="-106.8" font-family="Times,serif" font-size="14.00">rut_cliente :string</text>
</g>
<!-- Pago&#45;&gt;Cuenta -->
<g id="edge2" class="edge"><title>Pago&#45;&gt;Cuenta</title>
<path fill="none" stroke="#01787f" d="M89.3356,-390.444C102.204,-352.633 123.221,-306.656 152,-272 171.02,-249.097 196.265,-228.946 221.013,-212.631"/>
<polygon fill="#01787f" stroke="#01787f" points="89.1965,-390.868 81.8052,-398.969 87.6389,-395.619 86.0813,-400.371 86.0813,-400.371 86.0813,-400.371 87.6389,-395.619 90.3574,-401.773 89.1965,-390.868 89.1965,-390.868"/>
<polygon fill="#01787f" stroke="#01787f" points="221.323,-212.432 232.168,-210.807 225.529,-209.727 229.734,-207.022 229.734,-207.022 229.734,-207.022 225.529,-209.727 227.3,-203.238 221.323,-212.432 221.323,-212.432"/>
</g>
<!-- Rubro -->
<g id="node4" class="node"><title>Rubro</title>
<path fill="none" stroke="black" d="M446,-1258.5C446,-1258.5 530,-1258.5 530,-1258.5 536,-1258.5 542,-1264.5 542,-1270.5 542,-1270.5 542,-1307.5 542,-1307.5 542,-1313.5 536,-1319.5 530,-1319.5 530,-1319.5 446,-1319.5 446,-1319.5 440,-1319.5 434,-1313.5 434,-1307.5 434,-1307.5 434,-1270.5 434,-1270.5 434,-1264.5 440,-1258.5 446,-1258.5"/>
<text text-anchor="middle" x="488" y="-1304.3" font-family="Times,serif" font-size="14.00">Rubro</text>
<polyline fill="none" stroke="black" points="434,-1296.5 542,-1296.5 "/>
<text text-anchor="start" x="442" y="-1281.3" font-family="Times,serif" font-size="14.00">id_rubro :integer</text>
<text text-anchor="start" x="442" y="-1266.3" font-family="Times,serif" font-size="14.00">nombre :string</text>
</g>
<!-- Empresarubro -->
<g id="node5" class="node"><title>Empresarubro</title>
<path fill="none" stroke="black" d="M392.5,-430.5C392.5,-430.5 493.5,-430.5 493.5,-430.5 499.5,-430.5 505.5,-436.5 505.5,-442.5 505.5,-442.5 505.5,-479.5 505.5,-479.5 505.5,-485.5 499.5,-491.5 493.5,-491.5 493.5,-491.5 392.5,-491.5 392.5,-491.5 386.5,-491.5 380.5,-485.5 380.5,-479.5 380.5,-479.5 380.5,-442.5 380.5,-442.5 380.5,-436.5 386.5,-430.5 392.5,-430.5"/>
<text text-anchor="middle" x="443" y="-476.3" font-family="Times,serif" font-size="14.00">Empresarubro</text>
<polyline fill="none" stroke="black" points="380.5,-468.5 505.5,-468.5 "/>
<text text-anchor="start" x="388.5" y="-453.3" font-family="Times,serif" font-size="14.00">id_empresa :integer</text>
<text text-anchor="start" x="388.5" y="-438.3" font-family="Times,serif" font-size="14.00">id_rubro :integer</text>
</g>
<!-- Rubro&#45;&gt;Empresarubro -->
<g id="edge3" class="edge"><title>Rubro&#45;&gt;Empresarubro</title>
<path fill="none" stroke="#95a521" d="M481.95,-1250.48C475.069,-1206.09 464.127,-1129.88 459,-1064 442.562,-852.763 442.123,-598.718 442.653,-502.011"/>
<ellipse fill="none" stroke="#95a521" cx="482.568" cy="-1254.44" rx="4.00001" ry="4.00001"/>
<polygon fill="#95a521" stroke="#95a521" points="442.655,-501.809 447.216,-491.837 442.685,-496.809 442.716,-491.809 442.716,-491.809 442.716,-491.809 442.685,-496.809 438.216,-491.782 442.655,-501.809 442.655,-501.809"/>
</g>
<!-- Empresa -->
<g id="node12" class="node"><title>Empresa</title>
<path fill="none" stroke="black" d="M480,-822C480,-822 592,-822 592,-822 598,-822 604,-828 604,-834 604,-834 604,-916 604,-916 604,-922 598,-928 592,-928 592,-928 480,-928 480,-928 474,-928 468,-922 468,-916 468,-916 468,-834 468,-834 468,-828 474,-822 480,-822"/>
<text text-anchor="middle" x="536" y="-912.8" font-family="Times,serif" font-size="14.00">Empresa</text>
<polyline fill="none" stroke="black" points="468,-905 604,-905 "/>
<text text-anchor="start" x="476" y="-889.8" font-family="Times,serif" font-size="14.00">id_empresa :integer</text>
<text text-anchor="start" x="476" y="-874.8" font-family="Times,serif" font-size="14.00">nombre :string</text>
<text text-anchor="start" x="476" y="-859.8" font-family="Times,serif" font-size="14.00">cuenta_banco :integer</text>
<text text-anchor="start" x="476" y="-844.8" font-family="Times,serif" font-size="14.00">rut_empresa :string</text>
<text text-anchor="start" x="476" y="-829.8" font-family="Times,serif" font-size="14.00">activa :boolean</text>
</g>
<!-- Rubro&#45;&gt;Empresa -->
<g id="edge4" class="edge"><title>Rubro&#45;&gt;Empresa</title>
<path fill="none" stroke="#3cd7c2" d="M492.611,-1248.42C500.978,-1176.61 518.717,-1024.34 528.729,-938.409"/>
<polygon fill="#3cd7c2" stroke="#3cd7c2" points="492.609,-1248.44 486.982,-1257.85 492.031,-1253.4 491.452,-1258.37 491.452,-1258.37 491.452,-1258.37 492.031,-1253.4 495.922,-1258.89 492.609,-1248.44 492.609,-1248.44"/>
<polygon fill="#3cd7c2" stroke="#3cd7c2" points="528.753,-938.201 534.38,-928.789 529.332,-933.235 529.91,-928.268 529.91,-928.268 529.91,-928.268 529.332,-933.235 525.441,-927.747 528.753,-938.201 528.753,-938.201"/>
</g>
<!-- Account -->
<g id="node6" class="node"><title>Account</title>
<path fill="none" stroke="black" d="M182.5,-408C182.5,-408 311.5,-408 311.5,-408 317.5,-408 323.5,-414 323.5,-420 323.5,-420 323.5,-502 323.5,-502 323.5,-508 317.5,-514 311.5,-514 311.5,-514 182.5,-514 182.5,-514 176.5,-514 170.5,-508 170.5,-502 170.5,-502 170.5,-420 170.5,-420 170.5,-414 176.5,-408 182.5,-408"/>
<text text-anchor="middle" x="247" y="-498.8" font-family="Times,serif" font-size="14.00">Account</text>
<polyline fill="none" stroke="black" points="170.5,-491 323.5,-491 "/>
<text text-anchor="start" x="178.5" y="-475.8" font-family="Times,serif" font-size="14.00">id :integer</text>
<text text-anchor="start" x="178.5" y="-460.8" font-family="Times,serif" font-size="14.00">rut :string</text>
<text text-anchor="start" x="178.5" y="-445.8" font-family="Times,serif" font-size="14.00">id_cuenta_banco :integer</text>
<text text-anchor="start" x="178.5" y="-430.8" font-family="Times,serif" font-size="14.00">created_at :datetime</text>
<text text-anchor="start" x="178.5" y="-415.8" font-family="Times,serif" font-size="14.00">updated_at :datetime</text>
</g>
<!-- RemoteBase -->
<g id="node7" class="node"><title>RemoteBase</title>
<ellipse fill="none" stroke="black" cx="616" cy="-1289" rx="55.3436" ry="18"/>
<text text-anchor="middle" x="616" y="-1285.3" font-family="Times,serif" font-size="14.00">RemoteBase</text>
</g>
<!-- Client -->
<g id="node8" class="node"><title>Client</title>
<path fill="none" stroke="black" d="M159,-687C159,-687 335,-687 335,-687 341,-687 347,-693 347,-699 347,-699 347,-1051 347,-1051 347,-1057 341,-1063 335,-1063 335,-1063 159,-1063 159,-1063 153,-1063 147,-1057 147,-1051 147,-1051 147,-699 147,-699 147,-693 153,-687 159,-687"/>
<text text-anchor="middle" x="247" y="-1047.8" font-family="Times,serif" font-size="14.00">Client</text>
<polyline fill="none" stroke="black" points="147,-1040 347,-1040 "/>
<text text-anchor="start" x="155" y="-1024.8" font-family="Times,serif" font-size="14.00">id :integer</text>
<text text-anchor="start" x="155" y="-1009.8" font-family="Times,serif" font-size="14.00">email :string</text>
<text text-anchor="start" x="155" y="-994.8" font-family="Times,serif" font-size="14.00">encrypted_password :string</text>
<text text-anchor="start" x="155" y="-979.8" font-family="Times,serif" font-size="14.00">reset_password_token :string</text>
<text text-anchor="start" x="155" y="-964.8" font-family="Times,serif" font-size="14.00">reset_password_sent_at :datetime</text>
<text text-anchor="start" x="155" y="-949.8" font-family="Times,serif" font-size="14.00">remember_created_at :datetime</text>
<text text-anchor="start" x="155" y="-934.8" font-family="Times,serif" font-size="14.00">sign_in_count :integer</text>
<text text-anchor="start" x="155" y="-919.8" font-family="Times,serif" font-size="14.00">current_sign_in_at :datetime</text>
<text text-anchor="start" x="155" y="-904.8" font-family="Times,serif" font-size="14.00">last_sign_in_at :datetime</text>
<text text-anchor="start" x="155" y="-889.8" font-family="Times,serif" font-size="14.00">current_sign_in_ip :string</text>
<text text-anchor="start" x="155" y="-874.8" font-family="Times,serif" font-size="14.00">last_sign_in_ip :string</text>
<text text-anchor="start" x="155" y="-859.8" font-family="Times,serif" font-size="14.00">confirmation_token :string</text>
<text text-anchor="start" x="155" y="-844.8" font-family="Times,serif" font-size="14.00">confirmed_at :datetime</text>
<text text-anchor="start" x="155" y="-829.8" font-family="Times,serif" font-size="14.00">confirmation_sent_at :datetime</text>
<text text-anchor="start" x="155" y="-814.8" font-family="Times,serif" font-size="14.00">uid :integer</text>
<text text-anchor="start" x="155" y="-799.8" font-family="Times,serif" font-size="14.00">provider :string</text>
<text text-anchor="start" x="155" y="-784.8" font-family="Times,serif" font-size="14.00">rut :string</text>
<text text-anchor="start" x="155" y="-769.8" font-family="Times,serif" font-size="14.00">name :string</text>
<text text-anchor="start" x="155" y="-754.8" font-family="Times,serif" font-size="14.00">type :string</text>
<text text-anchor="start" x="155" y="-739.8" font-family="Times,serif" font-size="14.00">created_at :datetime</text>
<text text-anchor="start" x="155" y="-724.8" font-family="Times,serif" font-size="14.00">updated_at :datetime</text>
<text text-anchor="start" x="155" y="-709.8" font-family="Times,serif" font-size="14.00">id_empresa :integer</text>
<text text-anchor="start" x="155" y="-694.8" font-family="Times,serif" font-size="14.00">recovery :boolean</text>
</g>
<!-- Client&#45;&gt;Pago -->
<g id="edge7" class="edge"><title>Client&#45;&gt;Pago</title>
<path fill="none" stroke="#a444ab" d="M166.178,-679.27C144.094,-626.063 121.593,-571.849 104.591,-530.886"/>
<ellipse fill="none" stroke="#a444ab" cx="167.847" cy="-683.292" rx="4.00001" ry="4.00001"/>
<polygon fill="#a444ab" stroke="#a444ab" points="104.554,-530.798 104.877,-519.836 102.638,-526.18 100.721,-521.561 100.721,-521.561 100.721,-521.561 102.638,-526.18 96.5647,-523.287 104.554,-530.798 104.554,-530.798"/>
</g>
<!-- Client&#45;&gt;Account -->
<g id="edge6" class="edge"><title>Client&#45;&gt;Account</title>
<path fill="none" stroke="#4f5915" d="M247,-678.831C247,-622.943 247,-565.989 247,-524.484"/>
<ellipse fill="none" stroke="#4f5915" cx="247" cy="-682.987" rx="4" ry="4"/>
<polygon fill="#4f5915" stroke="#4f5915" points="247,-524.275 251.5,-514.275 247,-519.275 247,-514.275 247,-514.275 247,-514.275 247,-519.275 242.5,-514.275 247,-524.275 247,-524.275"/>
</g>
<!-- Client&#45;&gt;Cuenta -->
<g id="edge5" class="edge"><title>Client&#45;&gt;Cuenta</title>
<path fill="none" stroke="#99355c" d="M325.629,-679.076C328.086,-669.33 330.239,-659.604 332,-650 362.298,-484.755 349.479,-439.088 332,-272 331.086,-263.265 329.752,-254.183 328.185,-245.186"/>
<ellipse fill="none" stroke="#99355c" cx="324.601" cy="-683.022" rx="4.00001" ry="4.00001"/>
<polygon fill="#99355c" stroke="#99355c" points="328.136,-244.922 330.753,-234.273 327.232,-240.004 326.327,-235.087 326.327,-235.087 326.327,-235.087 327.232,-240.004 321.901,-235.901 328.136,-244.922 328.136,-244.922"/>
</g>
<!-- Admin -->
<g id="node9" class="node"><title>Admin</title>
<path fill="none" stroke="black" d="M702,-1101C702,-1101 878,-1101 878,-1101 884,-1101 890,-1107 890,-1113 890,-1113 890,-1465 890,-1465 890,-1471 884,-1477 878,-1477 878,-1477 702,-1477 702,-1477 696,-1477 690,-1471 690,-1465 690,-1465 690,-1113 690,-1113 690,-1107 696,-1101 702,-1101"/>
<text text-anchor="middle" x="790" y="-1461.8" font-family="Times,serif" font-size="14.00">Admin</text>
<polyline fill="none" stroke="black" points="690,-1454 890,-1454 "/>
<text text-anchor="start" x="698" y="-1438.8" font-family="Times,serif" font-size="14.00">id :integer</text>
<text text-anchor="start" x="698" y="-1423.8" font-family="Times,serif" font-size="14.00">email :string</text>
<text text-anchor="start" x="698" y="-1408.8" font-family="Times,serif" font-size="14.00">encrypted_password :string</text>
<text text-anchor="start" x="698" y="-1393.8" font-family="Times,serif" font-size="14.00">reset_password_token :string</text>
<text text-anchor="start" x="698" y="-1378.8" font-family="Times,serif" font-size="14.00">reset_password_sent_at :datetime</text>
<text text-anchor="start" x="698" y="-1363.8" font-family="Times,serif" font-size="14.00">remember_created_at :datetime</text>
<text text-anchor="start" x="698" y="-1348.8" font-family="Times,serif" font-size="14.00">sign_in_count :integer</text>
<text text-anchor="start" x="698" y="-1333.8" font-family="Times,serif" font-size="14.00">current_sign_in_at :datetime</text>
<text text-anchor="start" x="698" y="-1318.8" font-family="Times,serif" font-size="14.00">last_sign_in_at :datetime</text>
<text text-anchor="start" x="698" y="-1303.8" font-family="Times,serif" font-size="14.00">current_sign_in_ip :string</text>
<text text-anchor="start" x="698" y="-1288.8" font-family="Times,serif" font-size="14.00">last_sign_in_ip :string</text>
<text text-anchor="start" x="698" y="-1273.8" font-family="Times,serif" font-size="14.00">confirmation_token :string</text>
<text text-anchor="start" x="698" y="-1258.8" font-family="Times,serif" font-size="14.00">confirmed_at :datetime</text>
<text text-anchor="start" x="698" y="-1243.8" font-family="Times,serif" font-size="14.00">confirmation_sent_at :datetime</text>
<text text-anchor="start" x="698" y="-1228.8" font-family="Times,serif" font-size="14.00">uid :integer</text>
<text text-anchor="start" x="698" y="-1213.8" font-family="Times,serif" font-size="14.00">provider :string</text>
<text text-anchor="start" x="698" y="-1198.8" font-family="Times,serif" font-size="14.00">rut :string</text>
<text text-anchor="start" x="698" y="-1183.8" font-family="Times,serif" font-size="14.00">name :string</text>
<text text-anchor="start" x="698" y="-1168.8" font-family="Times,serif" font-size="14.00">type :string</text>
<text text-anchor="start" x="698" y="-1153.8" font-family="Times,serif" font-size="14.00">created_at :datetime</text>
<text text-anchor="start" x="698" y="-1138.8" font-family="Times,serif" font-size="14.00">updated_at :datetime</text>
<text text-anchor="start" x="698" y="-1123.8" font-family="Times,serif" font-size="14.00">id_empresa :integer</text>
<text text-anchor="start" x="698" y="-1108.8" font-family="Times,serif" font-size="14.00">recovery :boolean</text>
</g>
<!-- Cuenta&#45;&gt;Detalle -->
<g id="edge8" class="edge"><title>Cuenta&#45;&gt;Detalle</title>
<path fill="none" stroke="#0d4d2c" d="M256.912,-91.8982C251.021,-83.6751 245.233,-75.5963 239.909,-68.1649"/>
<ellipse fill="none" stroke="#0d4d2c" cx="259.389" cy="-95.3558" rx="4.00002" ry="4.00002"/>
<ellipse fill="#0d4d2c" stroke="#0d4d2c" cx="237.49" cy="-64.7881" rx="4.00002" ry="4.00002"/>
</g>
<!-- Cuenta&#45;&gt;Pago -->
<g id="edge9" class="edge"><title>Cuenta&#45;&gt;Pago</title>
<path fill="none" stroke="#b0bf97" d="M223.33,-223.143C204.173,-237.327 185.119,-253.793 170,-272 140.608,-307.393 119.313,-354.594 104.252,-392.846"/>
<ellipse fill="none" stroke="#b0bf97" cx="226.589" cy="-220.774" rx="4.00002" ry="4.00002"/>
<ellipse fill="#b0bf97" stroke="#b0bf97" cx="102.774" cy="-396.643" rx="4.00001" ry="4.00001"/>
</g>
<!-- User -->
<g id="node11" class="node"><title>User</title>
<path fill="none" stroke="black" d="M920,-1101C920,-1101 1096,-1101 1096,-1101 1102,-1101 1108,-1107 1108,-1113 1108,-1113 1108,-1465 1108,-1465 1108,-1471 1102,-1477 1096,-1477 1096,-1477 920,-1477 920,-1477 914,-1477 908,-1471 908,-1465 908,-1465 908,-1113 908,-1113 908,-1107 914,-1101 920,-1101"/>
<text text-anchor="middle" x="1008" y="-1461.8" font-family="Times,serif" font-size="14.00">User</text>
<polyline fill="none" stroke="black" points="908,-1454 1108,-1454 "/>
<text text-anchor="start" x="916" y="-1438.8" font-family="Times,serif" font-size="14.00">id :integer</text>
<text text-anchor="start" x="916" y="-1423.8" font-family="Times,serif" font-size="14.00">email :string</text>
<text text-anchor="start" x="916" y="-1408.8" font-family="Times,serif" font-size="14.00">encrypted_password :string</text>
<text text-anchor="start" x="916" y="-1393.8" font-family="Times,serif" font-size="14.00">reset_password_token :string</text>
<text text-anchor="start" x="916" y="-1378.8" font-family="Times,serif" font-size="14.00">reset_password_sent_at :datetime</text>
<text text-anchor="start" x="916" y="-1363.8" font-family="Times,serif" font-size="14.00">remember_created_at :datetime</text>
<text text-anchor="start" x="916" y="-1348.8" font-family="Times,serif" font-size="14.00">sign_in_count :integer</text>
<text text-anchor="start" x="916" y="-1333.8" font-family="Times,serif" font-size="14.00">current_sign_in_at :datetime</text>
<text text-anchor="start" x="916" y="-1318.8" font-family="Times,serif" font-size="14.00">last_sign_in_at :datetime</text>
<text text-anchor="start" x="916" y="-1303.8" font-family="Times,serif" font-size="14.00">current_sign_in_ip :string</text>
<text text-anchor="start" x="916" y="-1288.8" font-family="Times,serif" font-size="14.00">last_sign_in_ip :string</text>
<text text-anchor="start" x="916" y="-1273.8" font-family="Times,serif" font-size="14.00">confirmation_token :string</text>
<text text-anchor="start" x="916" y="-1258.8" font-family="Times,serif" font-size="14.00">confirmed_at :datetime</text>
<text text-anchor="start" x="916" y="-1243.8" font-family="Times,serif" font-size="14.00">confirmation_sent_at :datetime</text>
<text text-anchor="start" x="916" y="-1228.8" font-family="Times,serif" font-size="14.00">uid :integer</text>
<text text-anchor="start" x="916" y="-1213.8" font-family="Times,serif" font-size="14.00">provider :string</text>
<text text-anchor="start" x="916" y="-1198.8" font-family="Times,serif" font-size="14.00">rut :string</text>
<text text-anchor="start" x="916" y="-1183.8" font-family="Times,serif" font-size="14.00">name :string</text>
<text text-anchor="start" x="916" y="-1168.8" font-family="Times,serif" font-size="14.00">type :string</text>
<text text-anchor="start" x="916" y="-1153.8" font-family="Times,serif" font-size="14.00">created_at :datetime</text>
<text text-anchor="start" x="916" y="-1138.8" font-family="Times,serif" font-size="14.00">updated_at :datetime</text>
<text text-anchor="start" x="916" y="-1123.8" font-family="Times,serif" font-size="14.00">id_empresa :integer</text>
<text text-anchor="start" x="916" y="-1108.8" font-family="Times,serif" font-size="14.00">recovery :boolean</text>
</g>
<!-- Empresa&#45;&gt;Empresarubro -->
<g id="edge10" class="edge"><title>Empresa&#45;&gt;Empresarubro</title>
<path fill="none" stroke="#75728e" d="M522.437,-813.915C503.15,-728.47 468.326,-574.195 451.958,-501.686"/>
<ellipse fill="none" stroke="#75728e" cx="523.341" cy="-817.918" rx="4.00001" ry="4.00001"/>
<polygon fill="#75728e" stroke="#75728e" points="451.883,-501.354 454.071,-490.608 450.782,-496.476 449.681,-491.599 449.681,-491.599 449.681,-491.599 450.782,-496.476 445.292,-492.59 451.883,-501.354 451.883,-501.354"/>
</g>
<!-- Empresa&#45;&gt;Cuenta -->
<g id="edge11" class="edge"><title>Empresa&#45;&gt;Cuenta</title>
<path fill="none" stroke="#11be88" d="M541.329,-813.457C551.983,-678.978 570.341,-360.301 514,-272 488.306,-231.73 441.787,-206.351 399.654,-190.756"/>
<ellipse fill="none" stroke="#11be88" cx="540.991" cy="-817.671" rx="4" ry="4"/>
<polygon fill="#11be88" stroke="#11be88" points="399.601,-190.737 391.69,-183.144 394.891,-189.06 390.181,-187.383 390.181,-187.383 390.181,-187.383 394.891,-189.06 388.671,-191.623 399.601,-190.737 399.601,-190.737"/>
</g>
<!-- CompanyUser -->
<g id="node13" class="node"><title>CompanyUser</title>
<path fill="none" stroke="black" d="M574,-273C574,-273 750,-273 750,-273 756,-273 762,-279 762,-285 762,-285 762,-637 762,-637 762,-643 756,-649 750,-649 750,-649 574,-649 574,-649 568,-649 562,-643 562,-637 562,-637 562,-285 562,-285 562,-279 568,-273 574,-273"/>
<text text-anchor="middle" x="662" y="-633.8" font-family="Times,serif" font-size="14.00">CompanyUser</text>
<polyline fill="none" stroke="black" points="562,-626 762,-626 "/>
<text text-anchor="start" x="570" y="-610.8" font-family="Times,serif" font-size="14.00">id :integer</text>
<text text-anchor="start" x="570" y="-595.8" font-family="Times,serif" font-size="14.00">email :string</text>
<text text-anchor="start" x="570" y="-580.8" font-family="Times,serif" font-size="14.00">encrypted_password :string</text>
<text text-anchor="start" x="570" y="-565.8" font-family="Times,serif" font-size="14.00">reset_password_token :string</text>
<text text-anchor="start" x="570" y="-550.8" font-family="Times,serif" font-size="14.00">reset_password_sent_at :datetime</text>
<text text-anchor="start" x="570" y="-535.8" font-family="Times,serif" font-size="14.00">remember_created_at :datetime</text>
<text text-anchor="start" x="570" y="-520.8" font-family="Times,serif" font-size="14.00">sign_in_count :integer</text>
<text text-anchor="start" x="570" y="-505.8" font-family="Times,serif" font-size="14.00">current_sign_in_at :datetime</text>
<text text-anchor="start" x="570" y="-490.8" font-family="Times,serif" font-size="14.00">last_sign_in_at :datetime</text>
<text text-anchor="start" x="570" y="-475.8" font-family="Times,serif" font-size="14.00">current_sign_in_ip :string</text>
<text text-anchor="start" x="570" y="-460.8" font-family="Times,serif" font-size="14.00">last_sign_in_ip :string</text>
<text text-anchor="start" x="570" y="-445.8" font-family="Times,serif" font-size="14.00">confirmation_token :string</text>
<text text-anchor="start" x="570" y="-430.8" font-family="Times,serif" font-size="14.00">confirmed_at :datetime</text>
<text text-anchor="start" x="570" y="-415.8" font-family="Times,serif" font-size="14.00">confirmation_sent_at :datetime</text>
<text text-anchor="start" x="570" y="-400.8" font-family="Times,serif" font-size="14.00">uid :integer</text>
<text text-anchor="start" x="570" y="-385.8" font-family="Times,serif" font-size="14.00">provider :string</text>
<text text-anchor="start" x="570" y="-370.8" font-family="Times,serif" font-size="14.00">rut :string</text>
<text text-anchor="start" x="570" y="-355.8" font-family="Times,serif" font-size="14.00">name :string</text>
<text text-anchor="start" x="570" y="-340.8" font-family="Times,serif" font-size="14.00">type :string</text>
<text text-anchor="start" x="570" y="-325.8" font-family="Times,serif" font-size="14.00">created_at :datetime</text>
<text text-anchor="start" x="570" y="-310.8" font-family="Times,serif" font-size="14.00">updated_at :datetime</text>
<text text-anchor="start" x="570" y="-295.8" font-family="Times,serif" font-size="14.00">id_empresa :integer</text>
<text text-anchor="start" x="570" y="-280.8" font-family="Times,serif" font-size="14.00">recovery :boolean</text>
</g>
<!-- Empresa&#45;&gt;CompanyUser -->
<g id="edge12" class="edge"><title>Empresa&#45;&gt;CompanyUser</title>
<path fill="none" stroke="#72df19" d="M554.299,-814.166C567.06,-772.439 584.867,-714.211 602.332,-657.103"/>
<ellipse fill="none" stroke="#72df19" cx="553.128" cy="-817.995" rx="4.00001" ry="4.00001"/>
<ellipse fill="#72df19" stroke="#72df19" cx="603.513" cy="-653.245" rx="4.00001" ry="4.00001"/>
</g>
<!-- CompanyUser&#45;&gt;Cuenta -->
<g id="edge13" class="edge"><title>CompanyUser&#45;&gt;Cuenta</title>
<path fill="none" stroke="#9159cf" d="M555.868,-279.224C553.289,-276.744 550.666,-274.333 548,-272 505.616,-234.914 447.94,-209.261 399.98,-192.711"/>
<ellipse fill="none" stroke="#9159cf" cx="558.97" cy="-282.311" rx="4.00002" ry="4.00002"/>
<polygon fill="#9159cf" stroke="#9159cf" points="399.691,-192.614 391.652,-185.156 394.953,-191.017 390.214,-189.42 390.214,-189.42 390.214,-189.42 394.953,-191.017 388.777,-193.684 399.691,-192.614 399.691,-192.614"/>
</g>
</g>
</svg>
