<?xml version="1.0" encoding="UTF-8" standalone="no"?>
<!DOCTYPE svg PUBLIC "-//W3C//DTD SVG 1.1//EN"
 "http://www.w3.org/Graphics/SVG/1.1/DTD/svg11.dtd">
<!-- Generated by graphviz version 2.36.0 (20140111.2315)
 -->
<!-- Title: models_diagram Pages: 1 -->
<svg width="649pt" height="374pt"
 viewBox="0.00 0.00 649.00 374.00" xmlns="http://www.w3.org/2000/svg" xmlns:xlink="http://www.w3.org/1999/xlink">
<g id="graph0" class="graph" transform="scale(1 1) rotate(0) translate(4 370)">
<title>models_diagram</title>
<polygon fill="white" stroke="none" points="-4,4 -4,-370 645,-370 645,4 -4,4"/>
<!-- _diagram_info -->
<g id="node1" class="node"><title>_diagram_info</title>
<text text-anchor="start" x="61" y="-351.6" font-family="Times,serif" font-size="13.00">Models diagram</text>
<text text-anchor="start" x="61" y="-337.6" font-family="Times,serif" font-size="13.00">Date: Dec 05 2014 &#45; 14:50</text>
<text text-anchor="start" x="61" y="-323.6" font-family="Times,serif" font-size="13.00">Migration version: 20141204201823</text>
<text text-anchor="start" x="61" y="-309.6" font-family="Times,serif" font-size="13.00">Generated by RailRoady 1.2.0</text>
<text text-anchor="start" x="61" y="-295.6" font-family="Times,serif" font-size="13.00">http://railroady.prestonlee.com</text>
</g>
<!-- Detalle -->
<g id="node2" class="node"><title>Detalle</title>
<ellipse fill="none" stroke="black" cx="105" cy="-18" rx="36.096" ry="18"/>
<text text-anchor="middle" x="105" y="-14.3" font-family="Times,serif" font-size="14.00">Detalle</text>
</g>
<!-- Pago -->
<g id="node3" class="node"><title>Pago</title>
<ellipse fill="none" stroke="black" cx="28" cy="-162" rx="28.3955" ry="18"/>
<text text-anchor="middle" x="28" y="-158.3" font-family="Times,serif" font-size="14.00">Pago</text>
</g>
<!-- Pago&#45;&gt;Detalle -->
<g id="edge1" class="edge"><title>Pago&#45;&gt;Detalle</title>
<path fill="none" stroke="#d0ee8b" d="M40.7509,-137.485C54.6511,-111.851 76.8196,-70.9691 91.1414,-44.5575"/>
<ellipse fill="none" stroke="#d0ee8b" cx="38.7396" cy="-141.194" rx="4.00002" ry="4.00002"/>
<polygon fill="#d0ee8b" stroke="#d0ee8b" points="91.2661,-44.3274 99.9888,-37.6817 93.6495,-39.932 96.033,-35.5366 96.033,-35.5366 96.033,-35.5366 93.6495,-39.932 92.0771,-33.3915 91.2661,-44.3274 91.2661,-44.3274"/>
</g>
<!-- Cuenta -->
<g id="node10" class="node"><title>Cuenta</title>
<ellipse fill="none" stroke="black" cx="160" cy="-90" rx="35.6194" ry="18"/>
<text text-anchor="middle" x="160" y="-86.3" font-family="Times,serif" font-size="14.00">Cuenta</text>
</g>
<!-- Pago&#45;&gt;Cuenta -->
<g id="edge2" class="edge"><title>Pago&#45;&gt;Cuenta</title>
<path fill="none" stroke="#173167" d="M55.5071,-143.252C75.5938,-132.006 102.847,-117.591 124.551,-106.752"/>
<polygon fill="#173167" stroke="#173167" points="55.2627,-143.39 44.3442,-144.409 50.9134,-145.857 46.5641,-148.324 46.5641,-148.324 46.5641,-148.324 50.9134,-145.857 48.784,-152.238 55.2627,-143.39 55.2627,-143.39"/>
<polygon fill="#173167" stroke="#173167" points="124.813,-106.622 135.772,-106.232 129.297,-104.409 133.78,-102.196 133.78,-102.196 133.78,-102.196 129.297,-104.409 131.789,-98.1611 124.813,-106.622 124.813,-106.622"/>
</g>
<!-- Rubro -->
<g id="node4" class="node"><title>Rubro</title>
<ellipse fill="none" stroke="black" cx="317" cy="-327" rx="32.2457" ry="18"/>
<text text-anchor="middle" x="317" y="-323.3" font-family="Times,serif" font-size="14.00">Rubro</text>
</g>
<!-- Empresarubro -->
<g id="node5" class="node"><title>Empresarubro</title>
<ellipse fill="none" stroke="black" cx="272" cy="-162" rx="61.1419" ry="18"/>
<text text-anchor="middle" x="272" y="-158.3" font-family="Times,serif" font-size="14.00">Empresarubro</text>
</g>
<!-- Rubro&#45;&gt;Empresarubro -->
<g id="edge3" class="edge"><title>Rubro&#45;&gt;Empresarubro</title>
<path fill="none" stroke="#f3f573" d="M310.163,-301.236C301.856,-271.145 287.896,-220.577 279.359,-189.657"/>
<ellipse fill="none" stroke="#f3f573" cx="311.289" cy="-305.314" rx="4.00001" ry="4.00001"/>
<polygon fill="#f3f573" stroke="#f3f573" points="279.35,-189.622 281.026,-178.785 278.019,-184.802 276.688,-179.983 276.688,-179.983 276.688,-179.983 278.019,-184.802 272.351,-181.18 279.35,-189.622 279.35,-189.622"/>
</g>
<!-- Empresa -->
<g id="node12" class="node"><title>Empresa</title>
<ellipse fill="none" stroke="black" cx="356" cy="-234" rx="42.3701" ry="18"/>
<text text-anchor="middle" x="356" y="-230.3" font-family="Times,serif" font-size="14.00">Empresa</text>
</g>
<!-- Rubro&#45;&gt;Empresa -->
<g id="edge4" class="edge"><title>Rubro&#45;&gt;Empresa</title>
<path fill="none" stroke="#75c6f9" d="M328.23,-299.797C333.392,-287.752 339.503,-273.493 344.676,-261.422"/>
<polygon fill="#75c6f9" stroke="#75c6f9" points="328.092,-300.118 320.017,-307.537 326.123,-304.713 324.153,-309.309 324.153,-309.309 324.153,-309.309 326.123,-304.713 328.289,-311.082 328.092,-300.118 328.092,-300.118"/>
<polygon fill="#75c6f9" stroke="#75c6f9" points="344.821,-261.085 352.896,-253.666 346.79,-256.489 348.76,-251.893 348.76,-251.893 348.76,-251.893 346.79,-256.489 344.624,-250.12 344.821,-261.085 344.821,-261.085"/>
</g>
<!-- Account -->
<g id="node6" class="node"><title>Account</title>
<ellipse fill="none" stroke="black" cx="115" cy="-162" rx="39.9464" ry="18"/>
<text text-anchor="middle" x="115" y="-158.3" font-family="Times,serif" font-size="14.00">Account</text>
</g>
<!-- RemoteBase -->
<g id="node7" class="node"><title>RemoteBase</title>
<ellipse fill="none" stroke="black" cx="423" cy="-327" rx="55.3436" ry="18"/>
<text text-anchor="middle" x="423" y="-323.3" font-family="Times,serif" font-size="14.00">RemoteBase</text>
</g>
<!-- Client -->
<g id="node8" class="node"><title>Client</title>
<ellipse fill="none" stroke="black" cx="115" cy="-234" rx="32.2457" ry="18"/>
<text text-anchor="middle" x="115" y="-230.3" font-family="Times,serif" font-size="14.00">Client</text>
</g>
<!-- Client&#45;&gt;Pago -->
<g id="edge7" class="edge"><title>Client&#45;&gt;Pago</title>
<path fill="none" stroke="#ddb466" d="M90.9777,-213.672C79.1154,-204.127 64.8177,-192.623 52.8457,-182.991"/>
<ellipse fill="none" stroke="#ddb466" cx="94.2778" cy="-216.327" rx="4.00002" ry="4.00002"/>
<polygon fill="#ddb466" stroke="#ddb466" points="52.7787,-182.937 47.8084,-173.162 48.8831,-179.802 44.9875,-176.668 44.9875,-176.668 44.9875,-176.668 48.8831,-179.802 42.1665,-180.174 52.7787,-182.937 52.7787,-182.937"/>
</g>
<!-- Client&#45;&gt;Account -->
<g id="edge6" class="edge"><title>Client&#45;&gt;Account</title>
<path fill="none" stroke="#1c6fd8" d="M115,-207.64C115,-202.063 115,-196.132 115,-190.476"/>
<ellipse fill="none" stroke="#1c6fd8" cx="115" cy="-211.697" rx="4" ry="4"/>
<polygon fill="#1c6fd8" stroke="#1c6fd8" points="115,-190.104 119.5,-180.104 115,-185.104 115,-180.104 115,-180.104 115,-180.104 115,-185.104 110.5,-180.104 115,-190.104 115,-190.104"/>
</g>
<!-- Client&#45;&gt;Cuenta -->
<g id="edge5" class="edge"><title>Client&#45;&gt;Cuenta</title>
<path fill="none" stroke="#40562d" d="M139.751,-213.453C149.236,-204.41 158.979,-192.827 164,-180 171.729,-160.255 170.033,-136.134 166.79,-117.986"/>
<ellipse fill="none" stroke="#40562d" cx="136.573" cy="-216.331" rx="4.00002" ry="4.00002"/>
<polygon fill="#40562d" stroke="#40562d" points="166.765,-117.867 169.17,-107.168 165.763,-112.968 164.761,-108.07 164.761,-108.07 164.761,-108.07 165.763,-112.968 160.352,-108.972 166.765,-117.867 166.765,-117.867"/>
</g>
<!-- Admin -->
<g id="node9" class="node"><title>Admin</title>
<ellipse fill="none" stroke="black" cx="533" cy="-327" rx="35.6194" ry="18"/>
<text text-anchor="middle" x="533" y="-323.3" font-family="Times,serif" font-size="14.00">Admin</text>
</g>
<!-- Cuenta&#45;&gt;Detalle -->
<g id="edge8" class="edge"><title>Cuenta&#45;&gt;Detalle</title>
<path fill="none" stroke="#2b6d64" d="M142.479,-66.7002C136.221,-58.7362 129.166,-49.7571 122.879,-41.7551"/>
<ellipse fill="none" stroke="#2b6d64" cx="145.048" cy="-69.9706" rx="4.00002" ry="4.00002"/>
<ellipse fill="#2b6d64" stroke="#2b6d64" cx="120.284" cy="-38.4523" rx="4.00002" ry="4.00002"/>
</g>
<!-- Cuenta&#45;&gt;Pago -->
<g id="edge9" class="edge"><title>Cuenta&#45;&gt;Pago</title>
<path fill="none" stroke="#16536a" d="M132.453,-108.771C110.744,-120.923 80.682,-136.769 58.2968,-147.805"/>
<ellipse fill="none" stroke="#16536a" cx="135.989" cy="-106.771" rx="4.00002" ry="4.00002"/>
<ellipse fill="#16536a" stroke="#16536a" cx="54.4897" cy="-149.661" rx="4.00002" ry="4.00002"/>
</g>
<!-- User -->
<g id="node11" class="node"><title>User</title>
<ellipse fill="none" stroke="black" cx="614" cy="-327" rx="26.949" ry="18"/>
<text text-anchor="middle" x="614" y="-323.3" font-family="Times,serif" font-size="14.00">User</text>
</g>
<!-- Empresa&#45;&gt;Empresarubro -->
<g id="edge10" class="edge"><title>Empresa&#45;&gt;Empresarubro</title>
<path fill="none" stroke="#9dcf21" d="M331.001,-212.167C321.022,-203.852 309.503,-194.252 299.306,-185.755"/>
<ellipse fill="none" stroke="#9dcf21" cx="334.285" cy="-214.904" rx="4.00002" ry="4.00002"/>
<polygon fill="#9dcf21" stroke="#9dcf21" points="299.148,-185.623 294.347,-175.765 295.307,-182.423 291.466,-179.222 291.466,-179.222 291.466,-179.222 295.307,-182.423 288.585,-182.679 299.148,-185.623 299.148,-185.623"/>
</g>
<!-- Empresa&#45;&gt;Cuenta -->
<g id="edge11" class="edge"><title>Empresa&#45;&gt;Cuenta</title>
<path fill="none" stroke="#986b4d" d="M358.806,-207.809C359.559,-188.122 357.213,-161.285 342,-144 308.025,-105.398 247.719,-94.1737 205.883,-91.2874"/>
<ellipse fill="none" stroke="#986b4d" cx="358.545" cy="-212.032" rx="4" ry="4"/>
<polygon fill="#986b4d" stroke="#986b4d" points="205.657,-91.275 195.921,-86.2286 200.664,-90.9983 195.672,-90.7217 195.672,-90.7217 195.672,-90.7217 200.664,-90.9983 195.423,-95.2148 205.657,-91.275 205.657,-91.275"/>
</g>
<!-- CompanyUser -->
<g id="node13" class="node"><title>CompanyUser</title>
<ellipse fill="none" stroke="black" cx="451" cy="-162" rx="61.6163" ry="18"/>
<text text-anchor="middle" x="451" y="-158.3" font-family="Times,serif" font-size="14.00">CompanyUser</text>
</g>
<!-- Empresa&#45;&gt;CompanyUser -->
<g id="edge12" class="edge"><title>Empresa&#45;&gt;CompanyUser</title>
<path fill="none" stroke="#5f9c64" d="M382.642,-213.369C395.048,-204.228 409.823,-193.341 422.457,-184.032"/>
<ellipse fill="none" stroke="#5f9c64" cx="379.367" cy="-215.782" rx="4.00002" ry="4.00002"/>
<ellipse fill="#5f9c64" stroke="#5f9c64" cx="426.007" cy="-181.416" rx="4.00002" ry="4.00002"/>
</g>
<!-- CompanyUser&#45;&gt;Cuenta -->
<g id="edge13" class="edge"><title>CompanyUser&#45;&gt;Cuenta</title>
<path fill="none" stroke="#fa94cb" d="M397.284,-148.079C340.548,-134.431 252.343,-113.213 200.969,-100.855"/>
<ellipse fill="none" stroke="#fa94cb" cx="401.322" cy="-149.05" rx="4.00001" ry="4.00001"/>
<polygon fill="#fa94cb" stroke="#fa94cb" points="200.928,-100.845 192.258,-94.1312 196.067,-99.6758 191.205,-98.5064 191.205,-98.5064 191.205,-98.5064 196.067,-99.6758 190.153,-102.882 200.928,-100.845 200.928,-100.845"/>
</g>
</g>
</svg>
